<svg width="600" height="600" viewBox="0 0 600 600" fill="none" xmlns="http://www.w3.org/2000/svg">
<mask id="path-1-inside-1_3085_48" fill="white">
<path d="M260.561 487.5C249.675 487.5 241.51 480.357 236.067 466.071C230.624 451.786 230.322 429.643 235.16 399.643L270.087 192.5C273.413 173.929 273.867 161.072 271.448 153.929C269.331 146.786 266.156 143.214 261.922 143.214C255.874 143.214 248.919 149.881 241.057 163.214C233.194 176.072 224.878 193.691 216.109 216.072C207.642 238.452 199.326 263.929 191.161 292.5C182.996 321.071 175.436 350.833 168.481 381.786C161.526 412.738 155.78 443.214 151.244 473.214C150.337 478.452 148.22 481.071 144.894 481.071H127.203C122.97 481.071 121.307 477.976 122.214 471.786L163.945 192.5C166.667 173.929 166.969 161.072 164.852 153.929C163.038 146.786 160.014 143.214 155.78 143.214C150.035 143.214 143.231 149.881 135.368 163.214C127.506 176.072 119.341 193.691 110.874 216.072C102.407 238.452 94.0908 263.929 85.926 292.5C77.7613 321.071 70.2013 350.833 63.2461 381.786C56.2909 412.738 50.6965 443.214 46.463 473.214C45.5558 478.452 43.439 481.071 40.1126 481.071H21.515C17.2814 481.071 15.6183 477.976 16.5255 471.786L59.6173 186.786C61.1293 176.31 61.2805 168.214 60.0709 162.5C59.1637 156.31 56.4421 153.214 51.9061 153.214C46.463 153.214 40.415 159.643 33.7622 172.5C27.4118 184.881 20.1542 208.691 11.9895 243.929C10.7799 250.119 8.66308 253.214 5.63909 253.214C1.10309 253.214 -0.10651 248.929 2.0103 240.357C8.66308 207.5 15.6183 181.786 22.8758 163.214C30.4358 144.643 37.9958 131.548 45.5558 123.929C53.1157 116.31 60.0709 112.5 66.4213 112.5C76.4005 112.5 83.5068 118.452 87.7404 130.357C91.974 141.786 92.1252 160.833 88.194 187.5L76.8541 264.643C76.5517 267.976 77.0053 269.881 78.2149 270.357C79.4245 270.833 80.4828 269.643 81.39 266.786C98.9292 209.643 114.805 169.643 129.018 146.786C143.231 123.929 156.234 112.5 168.027 112.5C179.216 112.5 187.079 119.643 191.615 133.929C196.453 148.214 196.755 170.119 192.522 199.643L182.996 264.643C182.694 267.976 183.147 269.881 184.357 270.357C185.567 270.833 186.625 269.643 187.532 266.786C199.023 228.214 209.758 197.738 219.738 175.357C230.019 152.5 239.696 136.31 248.768 126.786C257.84 117.262 266.307 112.5 274.169 112.5C285.358 112.5 293.523 119.643 298.664 133.929C303.805 148.214 303.805 170.119 298.664 199.643L264.19 406.786C262.073 420.119 261.922 430.119 263.737 436.786C265.551 443.452 268.877 446.786 273.716 446.786C279.764 446.786 285.661 440.595 291.406 428.214C297.454 415.357 303.653 391.31 310.004 356.071C310.911 350.833 312.877 348.214 315.901 348.214C318.32 348.214 319.681 349.643 319.983 352.5C320.588 355.357 320.588 358.691 319.983 362.5C314.237 394.881 308.038 420.357 301.385 438.929C294.733 457.024 287.929 469.643 280.973 476.786C274.321 483.929 267.517 487.5 260.561 487.5ZM392.613 487.5C380.214 487.5 370.689 479.881 364.036 464.643C357.383 449.405 356.174 428.691 360.407 402.5L396.695 186.786C400.626 164.405 398.207 153.214 389.437 153.214C383.087 153.214 376.737 160.357 370.386 174.643C364.338 188.929 357.686 212.262 350.428 244.643C349.218 250.357 347.102 253.214 344.078 253.214C342.566 253.214 341.356 252.262 340.449 250.357C339.542 247.976 339.39 245.119 339.995 241.786C357.534 155.595 379.458 112.5 405.767 112.5C416.049 112.5 423.004 119.167 426.633 132.5C430.261 145.833 430.11 164.167 426.179 187.5L388.077 415.357C385.355 431.548 385.204 443.452 387.623 451.071C390.042 458.69 393.671 462.5 398.509 462.5C413.327 462.5 429.808 433.929 447.952 376.786C466.398 319.167 482.576 235.119 496.487 124.643C497.394 119.405 499.511 116.786 502.837 116.786H520.527C524.761 116.786 526.424 119.881 525.517 126.071L489.229 415.357C487.112 431.071 487.264 442.976 489.683 451.071C492.404 458.69 496.638 462.5 502.384 462.5C511.153 462.5 520.074 455.833 529.146 442.5C538.218 429.167 546.383 411.786 553.64 390.357C561.2 368.929 567.248 345.357 571.784 319.643C576.32 293.929 578.588 268.691 578.588 243.929C578.588 223.929 577.53 208.214 575.413 196.786C573.598 184.881 571.633 174.881 569.516 166.786C567.399 158.691 566.341 149.881 566.341 140.357C566.341 121.786 571.482 112.5 581.763 112.5C589.021 112.5 593.708 118.929 595.825 131.786C597.942 144.167 599 162.976 599 188.214C599 224.405 596.127 260.357 590.382 296.071C584.938 331.31 577.378 363.452 567.702 392.5C558.327 421.071 547.441 444.167 535.043 461.786C522.947 478.929 510.095 487.5 496.487 487.5C483.484 487.5 473.504 479.643 466.549 463.929C459.594 447.738 458.082 424.405 462.013 393.929C462.618 390.595 462.164 388.691 460.652 388.214C459.443 387.738 458.384 388.929 457.477 391.786C449.01 418.452 439.484 441.071 428.901 459.643C418.317 478.214 406.221 487.5 392.613 487.5Z"/>
</mask>
<path d="M260.561 487.5C249.675 487.5 241.51 480.357 236.067 466.071C230.624 451.786 230.322 429.643 235.16 399.643L270.087 192.5C273.413 173.929 273.867 161.072 271.448 153.929C269.331 146.786 266.156 143.214 261.922 143.214C255.874 143.214 248.919 149.881 241.057 163.214C233.194 176.072 224.878 193.691 216.109 216.072C207.642 238.452 199.326 263.929 191.161 292.5C182.996 321.071 175.436 350.833 168.481 381.786C161.526 412.738 155.78 443.214 151.244 473.214C150.337 478.452 148.22 481.071 144.894 481.071H127.203C122.97 481.071 121.307 477.976 122.214 471.786L163.945 192.5C166.667 173.929 166.969 161.072 164.852 153.929C163.038 146.786 160.014 143.214 155.78 143.214C150.035 143.214 143.231 149.881 135.368 163.214C127.506 176.072 119.341 193.691 110.874 216.072C102.407 238.452 94.0908 263.929 85.926 292.5C77.7613 321.071 70.2013 350.833 63.2461 381.786C56.2909 412.738 50.6965 443.214 46.463 473.214C45.5558 478.452 43.439 481.071 40.1126 481.071H21.515C17.2814 481.071 15.6183 477.976 16.5255 471.786L59.6173 186.786C61.1293 176.31 61.2805 168.214 60.0709 162.5C59.1637 156.31 56.4421 153.214 51.9061 153.214C46.463 153.214 40.415 159.643 33.7622 172.5C27.4118 184.881 20.1542 208.691 11.9895 243.929C10.7799 250.119 8.66308 253.214 5.63909 253.214C1.10309 253.214 -0.10651 248.929 2.0103 240.357C8.66308 207.5 15.6183 181.786 22.8758 163.214C30.4358 144.643 37.9958 131.548 45.5558 123.929C53.1157 116.31 60.0709 112.5 66.4213 112.5C76.4005 112.5 83.5068 118.452 87.7404 130.357C91.974 141.786 92.1252 160.833 88.194 187.5L76.8541 264.643C76.5517 267.976 77.0053 269.881 78.2149 270.357C79.4245 270.833 80.4828 269.643 81.39 266.786C98.9292 209.643 114.805 169.643 129.018 146.786C143.231 123.929 156.234 112.5 168.027 112.5C179.216 112.5 187.079 119.643 191.615 133.929C196.453 148.214 196.755 170.119 192.522 199.643L182.996 264.643C182.694 267.976 183.147 269.881 184.357 270.357C185.567 270.833 186.625 269.643 187.532 266.786C199.023 228.214 209.758 197.738 219.738 175.357C230.019 152.5 239.696 136.31 248.768 126.786C257.84 117.262 266.307 112.5 274.169 112.5C285.358 112.5 293.523 119.643 298.664 133.929C303.805 148.214 303.805 170.119 298.664 199.643L264.19 406.786C262.073 420.119 261.922 430.119 263.737 436.786C265.551 443.452 268.877 446.786 273.716 446.786C279.764 446.786 285.661 440.595 291.406 428.214C297.454 415.357 303.653 391.31 310.004 356.071C310.911 350.833 312.877 348.214 315.901 348.214C318.32 348.214 319.681 349.643 319.983 352.5C320.588 355.357 320.588 358.691 319.983 362.5C314.237 394.881 308.038 420.357 301.385 438.929C294.733 457.024 287.929 469.643 280.973 476.786C274.321 483.929 267.517 487.5 260.561 487.5ZM392.613 487.5C380.214 487.5 370.689 479.881 364.036 464.643C357.383 449.405 356.174 428.691 360.407 402.5L396.695 186.786C400.626 164.405 398.207 153.214 389.437 153.214C383.087 153.214 376.737 160.357 370.386 174.643C364.338 188.929 357.686 212.262 350.428 244.643C349.218 250.357 347.102 253.214 344.078 253.214C342.566 253.214 341.356 252.262 340.449 250.357C339.542 247.976 339.39 245.119 339.995 241.786C357.534 155.595 379.458 112.5 405.767 112.5C416.049 112.5 423.004 119.167 426.633 132.5C430.261 145.833 430.11 164.167 426.179 187.5L388.077 415.357C385.355 431.548 385.204 443.452 387.623 451.071C390.042 458.69 393.671 462.5 398.509 462.5C413.327 462.5 429.808 433.929 447.952 376.786C466.398 319.167 482.576 235.119 496.487 124.643C497.394 119.405 499.511 116.786 502.837 116.786H520.527C524.761 116.786 526.424 119.881 525.517 126.071L489.229 415.357C487.112 431.071 487.264 442.976 489.683 451.071C492.404 458.69 496.638 462.5 502.384 462.5C511.153 462.5 520.074 455.833 529.146 442.5C538.218 429.167 546.383 411.786 553.64 390.357C561.2 368.929 567.248 345.357 571.784 319.643C576.32 293.929 578.588 268.691 578.588 243.929C578.588 223.929 577.53 208.214 575.413 196.786C573.598 184.881 571.633 174.881 569.516 166.786C567.399 158.691 566.341 149.881 566.341 140.357C566.341 121.786 571.482 112.5 581.763 112.5C589.021 112.5 593.708 118.929 595.825 131.786C597.942 144.167 599 162.976 599 188.214C599 224.405 596.127 260.357 590.382 296.071C584.938 331.31 577.378 363.452 567.702 392.5C558.327 421.071 547.441 444.167 535.043 461.786C522.947 478.929 510.095 487.5 496.487 487.5C483.484 487.5 473.504 479.643 466.549 463.929C459.594 447.738 458.082 424.405 462.013 393.929C462.618 390.595 462.164 388.691 460.652 388.214C459.443 387.738 458.384 388.929 457.477 391.786C449.01 418.452 439.484 441.071 428.901 459.643C418.317 478.214 406.221 487.5 392.613 487.5Z" fill="#DFFF57" stroke="black" stroke-width="2" mask="url(#path-1-inside-1_3085_48)"/>
</svg>
