<svg width="600" height="600" viewBox="0 0 600 600" fill="none" xmlns="http://www.w3.org/2000/svg">
<path d="M260.561 600C249.675 600 241.51 588.571 236.067 565.714C230.624 542.857 230.322 507.429 235.16 459.429L270.087 128C273.413 98.2859 273.867 77.7145 271.448 66.2857C269.331 54.8571 266.156 49.1428 261.922 49.1428C255.874 49.1428 248.919 59.8095 241.057 81.143C233.194 101.714 224.878 129.905 216.109 165.714C207.642 201.524 199.326 242.286 191.161 288C182.996 333.714 175.436 381.333 168.481 430.857C161.526 480.381 155.78 529.143 151.244 577.143C150.337 585.524 148.22 589.714 144.894 589.714H127.203C122.97 589.714 121.307 584.762 122.214 574.857L163.945 128C166.667 98.2859 166.969 77.7145 164.852 66.2857C163.038 54.8571 160.014 49.1428 155.78 49.1428C150.035 49.1428 143.231 59.8095 135.368 81.143C127.506 101.714 119.341 129.905 110.874 165.714C102.407 201.524 94.0908 242.286 85.926 288C77.7613 333.714 70.2013 381.333 63.2461 430.857C56.2909 480.381 50.6965 529.143 46.463 577.143C45.5558 585.524 43.439 589.714 40.1126 589.714H21.515C17.2814 589.714 15.6183 584.762 16.5255 574.857L59.6173 118.857C61.1293 102.095 61.2805 89.143 60.0709 80.0002C59.1637 70.0954 56.4421 65.1428 51.9061 65.1428C46.463 65.1428 40.415 75.4287 33.7622 96.0002C27.4118 115.81 20.1542 153.905 11.9895 210.286C10.7799 220.191 8.66308 225.143 5.63909 225.143C1.10309 225.143 -0.10651 218.286 2.0103 204.572C8.66308 152 15.6183 110.857 22.8758 81.143C30.4358 51.4285 37.9958 30.4762 45.5558 18.2858C53.1157 6.09525 60.0709 0 66.4213 0C76.4005 0 83.5068 9.5238 87.7404 28.5714C91.974 46.8571 92.1252 77.3335 88.194 120L76.8541 243.429C76.5517 248.762 77.0053 251.81 78.2149 252.572C79.4245 253.333 80.4828 251.429 81.39 246.857C98.9292 155.429 114.805 91.4287 129.018 54.8571C143.231 18.2857 156.234 0 168.027 0C179.216 0 187.079 11.4286 191.615 34.2857C196.453 57.1428 196.755 92.1906 192.522 139.429L182.996 243.429C182.694 248.762 183.147 251.81 184.357 252.572C185.567 253.333 186.625 251.429 187.532 246.857C199.023 185.143 209.758 136.381 219.738 100.572C230.019 64 239.696 38.0952 248.768 22.8571C257.84 7.61904 266.307 0 274.169 0C285.358 0 293.523 11.4286 298.664 34.2857C303.805 57.1428 303.805 92.1906 298.664 139.429L264.19 470.857C262.073 492.191 261.922 508.191 263.737 518.857C265.551 529.524 268.877 534.857 273.716 534.857C279.764 534.857 285.661 524.952 291.406 505.143C297.454 484.571 303.653 446.095 310.004 389.714C310.911 381.333 312.877 377.143 315.901 377.143C318.32 377.143 319.681 379.429 319.983 384C320.588 388.572 320.588 393.905 319.983 400C314.237 451.81 308.038 492.571 301.385 522.286C294.733 551.238 287.929 571.429 280.973 582.857C274.321 594.286 267.517 600 260.561 600ZM392.613 600C380.214 600 370.689 587.81 364.036 563.429C357.383 539.048 356.174 505.905 360.407 464L396.695 118.857C400.626 83.0478 398.207 65.1428 389.437 65.1428C383.087 65.1428 376.737 76.5716 370.386 99.4287C364.338 122.286 357.686 159.619 350.428 211.429C349.218 220.572 347.102 225.143 344.078 225.143C342.566 225.143 341.356 223.619 340.449 220.572C339.542 216.762 339.39 212.191 339.995 206.857C357.534 68.9526 379.458 0 405.767 0C416.049 0 423.004 10.6667 426.633 32C430.261 53.3333 430.11 82.6668 426.179 120L388.077 484.571C385.355 510.476 385.204 529.524 387.623 541.714C390.042 553.905 393.671 560 398.509 560C413.327 560 429.808 514.286 447.952 422.857C466.398 330.667 482.576 196.191 496.487 19.4286C497.394 11.0476 499.511 6.85713 502.837 6.85713H520.527C524.761 6.85713 526.424 11.8095 525.517 21.7143L489.229 484.571C487.112 509.714 487.264 528.762 489.683 541.714C492.404 553.905 496.638 560 502.384 560C511.153 560 520.074 549.333 529.146 528C538.218 506.667 546.383 478.857 553.64 444.571C561.2 410.286 567.248 372.572 571.784 331.429C576.32 290.286 578.588 249.905 578.588 210.286C578.588 178.286 577.53 153.143 575.413 134.857C573.598 115.81 571.633 99.8097 569.516 86.8573C567.399 73.9049 566.341 59.8095 566.341 44.5714C566.341 14.8571 571.482 0 581.763 0C589.021 0 593.708 10.2857 595.825 30.8571C597.942 50.6666 599 80.7621 599 121.143C599 179.048 596.127 236.572 590.382 293.714C584.938 350.095 577.378 401.524 567.702 448C558.327 493.714 547.441 530.667 535.043 558.857C522.947 586.286 510.095 600 496.487 600C483.484 600 473.504 587.429 466.549 562.286C459.594 536.381 458.082 499.048 462.013 450.286C462.618 444.952 462.164 441.905 460.652 441.143C459.443 440.381 458.384 442.286 457.477 446.857C449.01 489.524 439.484 525.714 428.901 555.429C418.317 585.143 406.221 600 392.613 600Z" fill="#DFFF57"/>
</svg>
